<svg width="24" height="24" viewBox="0 0 24 24" fill="none" xmlns="http://www.w3.org/2000/svg">
<path d="M6.31496 17.3333C7.0096 17.3333 7.57795 17.9333 7.57795 18.6667C7.57795 20.1333 6.44126 21.3333 5.05197 21.3333C4.83726 21.3333 4.63518 21.3067 4.42047 21.2667C4.812 20.5333 5.05197 19.6533 5.05197 18.6667C5.05197 17.9333 5.62031 17.3333 6.31496 17.3333ZM21.0541 0C20.7257 0 20.4099 0.133333 20.1573 0.386667L8.84094 12.3333L12.3142 16L23.6306 4.05333C24.1231 3.53333 24.1231 2.69333 23.6306 2.17333L21.9382 0.386667C21.6856 0.12 21.3698 0 21.0541 0ZM6.31496 14.6667C4.21839 14.6667 2.52598 16.4533 2.52598 18.6667C2.52598 20.4133 1.06091 21.3333 0 21.3333C1.16195 22.96 3.14485 24 5.05197 24C7.84318 24 10.1039 21.6133 10.1039 18.6667C10.1039 16.4533 8.41153 14.6667 6.31496 14.6667Z" fill="#FFAC2F"/>
</svg>
