<svg width="32" height="32" viewBox="0 0 32 32" fill="none" xmlns="http://www.w3.org/2000/svg">
<path d="M27.721 23.9891L26.2952 31.2433C26.2088 31.6829 25.8234 32 25.3753 32H6.6253C6.17724 32 5.7918 31.6829 5.7053 31.2433L27.721 23.9891ZM27.721 23.9891C28.0694 22.2473 26.7365 20.625 24.9631 20.625H23.9564L27.721 23.9891ZM23.7678 20.6915L23.8149 20.825H23.9564H24.9631C26.6104 20.825 27.8485 22.3319 27.5249 23.9498L27.5247 23.9505L26.0989 31.2047L26.0989 31.2048C26.031 31.5506 25.7278 31.8 25.3753 31.8H6.6253C6.27283 31.8 5.96959 31.5506 5.90154 31.2047L4.47511 23.9475L4.47498 23.9468C4.15273 22.3358 5.3876 20.825 7.03736 20.825H8.04405H8.18559L8.23267 20.6915C8.96815 18.6059 10.5088 16.9151 12.4894 15.9835L12.813 15.8314L12.514 15.6353C11.6331 15.0576 10.9148 14.2731 10.4165 13.3607L10.3029 13.1526L10.1169 13.2997C9.6715 13.6519 9.11027 13.8625 8.50024 13.8625C7.05988 13.8625 5.88774 12.6904 5.88774 11.25V9.375C5.88774 9.0497 5.94797 8.73847 6.05709 8.45105L6.06331 8.43467L6.06658 8.41746C6.95624 3.74406 11.0724 0.2 16.0003 0.2C20.9282 0.2 25.0443 3.74406 25.9339 8.41746L25.9372 8.43467L25.9434 8.45105C26.0525 8.73847 26.1127 9.04964 26.1127 9.375V11.25C26.1127 12.3846 25.385 13.3531 24.3709 13.7128L24.2377 13.76V13.9012V14.0625C24.2377 15.5029 23.0656 16.675 21.6252 16.675H21.3081H20.7428L21.1823 17.0305C22.3528 17.9771 23.2555 19.2386 23.7678 20.6915ZM20.4519 14.8572L20.1026 15.2H20.592H21.6253C22.2526 15.2 22.7628 14.6899 22.7628 14.0625V13.9012V13.7599L22.6296 13.7127C22.3576 13.6162 22.1063 13.4757 21.8836 13.2997L21.6976 13.1527L21.584 13.3607C21.2829 13.912 20.9012 14.4164 20.4519 14.8572ZM24.5207 8.89387L24.5151 8.86041L24.4988 8.83064C24.306 8.47822 23.9312 8.2375 23.5003 8.2375C22.8729 8.2375 22.3628 8.74761 22.3628 9.375V11.25C22.3628 11.8774 22.8729 12.3875 23.5003 12.3875C24.1277 12.3875 24.6378 11.8774 24.6378 11.25V10.3125C24.6378 9.8293 24.5973 9.35553 24.5207 8.89387ZM7.50177 8.83066L7.48549 8.86042L7.47994 8.89387C7.4033 9.35553 7.3628 9.82936 7.3628 10.3125V11.25C7.3628 11.8774 7.87291 12.3875 8.5003 12.3875C9.12769 12.3875 9.6378 11.8774 9.6378 11.25V9.375C9.6378 8.74761 9.12769 8.2375 8.5003 8.2375C8.06942 8.2375 7.69456 8.47814 7.50177 8.83066ZM8.26371 6.47478L8.11652 6.77033L8.44663 6.7639C8.46144 6.76361 8.46997 6.76328 8.47689 6.76301C8.48457 6.76272 8.49025 6.7625 8.5003 6.7625C9.11044 6.7625 9.67173 6.97323 10.1173 7.32551L10.3029 7.47232L10.4167 7.26475C11.4987 5.29057 13.5962 3.95 16.0003 3.95C18.4044 3.95 20.5019 5.29057 21.5839 7.26475L21.6977 7.47233L21.8834 7.3255C22.3288 6.97323 22.8902 6.7625 23.5003 6.7625C23.5103 6.7625 23.5161 6.76272 23.5238 6.76302C23.5307 6.76328 23.5392 6.76361 23.554 6.7639L23.8841 6.77035L23.7369 6.47478C22.3217 3.63316 19.3861 1.675 16.0003 1.675C12.6145 1.675 9.67892 3.63316 8.26371 6.47478ZM18.1722 14.4876L18.2762 14.6428L18.4382 14.5496C19.9323 13.6892 20.8878 12.0823 20.8878 10.3125C20.8878 7.61736 18.6954 5.425 16.0003 5.425C13.3052 5.425 11.1128 7.61736 11.1128 10.3125C11.1128 12.0822 12.0683 13.6891 13.5624 14.5496L13.7244 14.6428L13.8284 14.4876C14.2981 13.7865 15.0965 13.325 16.0003 13.325C16.9041 13.325 17.7025 13.7865 18.1722 14.4876ZM13.738 17.2413L13.6514 17.0917L13.4908 17.1557C11.9014 17.7891 10.6158 19.0018 9.88797 20.5394L9.7528 20.825H10.0687H21.9319H22.2478L22.1126 20.5394C21.3848 19.0018 20.0992 17.7891 18.5098 17.1557L18.3492 17.0917L18.2626 17.2413C17.81 18.0234 16.9654 18.55 16.0003 18.55C15.0352 18.55 14.1905 18.0234 13.738 17.2413ZM24.6041 30.325H24.7686L24.8004 30.1636L26.0779 23.6636C26.0779 23.6635 26.078 23.6634 26.078 23.6633C26.2201 22.9519 25.6772 22.3 24.9632 22.3H24.9454H24.9273H24.9089H24.8903H24.8715H24.8524H24.833H24.8134H24.7935H24.7734H24.7531H24.7325H24.7116H24.6905H24.6692H24.6476H24.6258H24.6037H24.5814H24.5589H24.5361H24.5131H24.4898H24.4663H24.4426H24.4186H24.3945H24.3701H24.3454H24.3206H24.2955H24.2701H24.2446H24.2188H24.1929H24.1667H24.1402H24.1136H24.0867H24.0597H24.0324H24.0049H23.9772H23.9492H23.9211H23.8927H23.8642H23.8354H23.8065H23.7773H23.7479H23.7183H23.6886H23.6586H23.6284H23.598H23.5675H23.5367H23.5057H23.4746H23.4432H23.4117H23.38H23.3481H23.316H23.2837H23.2512H23.2185H23.1857H23.1527H23.1195H23.0861H23.0525H23.0188H22.9848H22.9507H22.9165H22.882H22.8474H22.8126H22.7777H22.7426H22.7073H22.6718H22.6362H22.6004H22.5645H22.5283H22.4921H22.4556H22.4191H22.3823H22.3454H22.3084H22.2711H22.2338H22.1963H22.1586H22.1208H22.0828H22.0447H22.0064H21.968H21.9295H21.8908H21.852H21.813H21.7739H21.7347H21.6953H21.6557H21.6161H21.5763H21.5364H21.4963H21.4561H21.4158H21.3754H21.3348H21.2941H21.2533H21.2124H21.1713H21.1301H21.0888H21.0474H21.0058H20.9642H20.9224H20.8805H20.8385H20.7964H20.7542H20.7118H20.6694H20.6268H20.5842H20.5414H20.4985H20.4556H20.4125H20.3693H20.326H20.2827H20.2392H20.1956H20.152H20.1082H20.0644H20.0204H19.9764H19.9323H19.888H19.8437H19.7994H19.7549H19.7103H19.6657H19.621H19.5762H19.5313H19.4863H19.4413H19.3962H19.351H19.3057H19.2604H19.215H19.1695H19.1239H19.0783H19.0326H18.9869H18.9411H18.8952H18.8493H18.8032H18.7572H18.7111H18.6649H18.6186H18.5723H18.526H18.4796H18.4331H18.3866H18.3401H18.2935H18.2468H18.2001H18.1534H18.1066H18.0597H18.0129H17.9659H17.919H17.872H17.8249H17.7779H17.7307H17.6836H17.6364H17.5892H17.542H17.4947H17.4474H17.4001H17.3527H17.3053H17.2579H17.2105H17.163H17.1156H17.0681H17.0206H16.973H16.9255H16.8779H16.8303H16.7828H16.7352H16.6875H16.6399H16.5923H16.5447H16.497H16.4494H16.4017H16.354H16.3064H16.2587H16.2111H16.1634H16.1157H16.0681H16.0204H15.9728H15.9252H15.8775H15.8299H15.7823H15.7347H15.6871H15.6396H15.592H15.5445H15.4969H15.4494H15.402H15.3545H15.3071H15.2596H15.2122H15.1649H15.1175H15.0702H15.0229H14.9757H14.9284H14.8812H14.8341H14.7869H14.7398H14.6928H14.6458H14.5988H14.5518H14.5049H14.4581H14.4113H14.3645H14.3178H14.2711H14.2244H14.1779H14.1313H14.0848H14.0384H13.992H13.9457H13.8994H13.8532H13.8071H13.761H13.7149H13.669H13.623H13.5772H13.5314H13.4857H13.44H13.3944H13.3489H13.3035H13.2581H13.2128H13.1676H13.1224H13.0773H13.0323H12.9874H12.9425H12.8978H12.8531H12.8085H12.764H12.7195H12.6752H12.6309H12.5868H12.5427H12.4987H12.4548H12.411H12.3672H12.3236H12.2801H12.2367H12.1933H12.1501H12.107H12.0639H12.021H11.9782H11.9355H11.8929H11.8504H11.808H11.7657H11.7235H11.6814H11.6395H11.5976H11.5559H11.5143H11.4728H11.4314H11.3902H11.3491H11.3081H11.2672H11.2264H11.1858H11.1453H11.1049H11.0646H11.0245H10.9845H10.9446H10.9049H10.8653H10.8258H10.7865H10.7473H10.7083H10.6694H10.6306H10.592H10.5535H10.5152H10.477H10.4389H10.401H10.3633H10.3257H10.2882H10.2509H10.2138H10.1768H10.14H10.1033H10.0668H10.0304H9.99422H9.95818H9.9223H9.88659H9.85104H9.81566H9.78044H9.7454H9.71052H9.67581H9.64127H9.60691H9.57272H9.5387H9.50486H9.4712H9.43771H9.4044H9.37128H9.33833H9.30557H9.27299H9.2406H9.20839H9.17637H9.14454H9.1129H9.08144H9.05018H9.01911H8.98824H8.95756H8.92708H8.89679H8.8667H8.83681H8.80712H8.77764H8.74835H8.71927H8.6904H8.66173H8.63327H8.60502H8.57697H8.54914H8.52152H8.49411H8.46692H8.43994H8.41318H8.38663H8.36031H8.3342H8.30832H8.28265H8.25721H8.232H8.20701H8.18224H8.1577H8.1334H8.10932H8.08547H8.06185H8.03847H8.01532H7.99241H7.96974H7.9473H7.9251H7.90314H7.88142H7.85994H7.83871H7.81772H7.79698H7.77648H7.75624H7.73624H7.71649H7.69699H7.67774H7.65875H7.64001H7.62153H7.60331H7.58534H7.56763H7.55018H7.533H7.51607H7.49941H7.48302H7.46689H7.45102H7.43543H7.4201H7.40505H7.39026H7.37575H7.36151H7.34755H7.33386H7.32045H7.30732H7.29447H7.2819H7.26961H7.2576H7.24588H7.23444H7.22329H7.21242H7.20184H7.19156H7.18156H7.17185H7.16244H7.15332H7.1445H7.13597H7.12774H7.11981H7.11218H7.10485H7.09782H7.09109H7.08467H7.07856H7.07275H7.06724H7.06205H7.05716H7.05259H7.04833H7.04438H7.04074H7.03743C6.32017 22.3 5.78123 22.9561 5.92195 23.6603C5.92196 23.6604 5.92198 23.6605 5.922 23.6606L7.20018 30.1636L7.23191 30.325H7.39643H24.6041ZM16.0003 17.075C16.6277 17.075 17.1378 16.5649 17.1378 15.9375C17.1378 15.3101 16.6277 14.8 16.0003 14.8C15.3729 14.8 14.8628 15.3101 14.8628 15.9375C14.8628 16.5649 15.3729 17.075 16.0003 17.075Z" fill="#FF008A" stroke="#FF008A" stroke-width="0.4"/>
<path d="M17.8752 25.375H14.1252C13.6075 25.375 13.1877 25.7947 13.1877 26.3125C13.1877 26.8303 13.6075 27.25 14.1252 27.25H17.8752C18.393 27.25 18.8127 26.8303 18.8127 26.3125C18.8127 25.7947 18.393 25.375 17.8752 25.375Z" fill="#FF008A"/>
</svg>
