<svg width="32" height="32" viewBox="0 0 32 32" fill="none" xmlns="http://www.w3.org/2000/svg">
<g clip-path="url(#clip0_3_829)">
<path d="M12 18.3334C8.87996 18.3334 2.66663 19.8934 2.66663 23.0001V25.3334H21.3333V23.0001C21.3333 19.8934 15.12 18.3334 12 18.3334ZM5.78663 22.6668C6.90663 21.8934 9.61329 21.0001 12 21.0001C14.3866 21.0001 17.0933 21.8934 18.2133 22.6668H5.78663ZM12 16.0001C14.5733 16.0001 16.6666 13.9067 16.6666 11.3334C16.6666 8.76008 14.5733 6.66675 12 6.66675C9.42663 6.66675 7.33329 8.76008 7.33329 11.3334C7.33329 13.9067 9.42663 16.0001 12 16.0001ZM12 9.33342C13.1066 9.33342 14 10.2267 14 11.3334C14 12.4401 13.1066 13.3334 12 13.3334C10.8933 13.3334 9.99996 12.4401 9.99996 11.3334C9.99996 10.2267 10.8933 9.33342 12 9.33342ZM21.3866 18.4134C22.9333 19.5334 24 21.0268 24 23.0001V25.3334H29.3333V23.0001C29.3333 20.3068 24.6666 18.7734 21.3866 18.4134ZM20 16.0001C22.5733 16.0001 24.6666 13.9067 24.6666 11.3334C24.6666 8.76008 22.5733 6.66675 20 6.66675C19.28 6.66675 18.6133 6.84008 18 7.13341C18.84 8.32008 19.3333 9.77342 19.3333 11.3334C19.3333 12.8934 18.84 14.3467 18 15.5334C18.6133 15.8267 19.28 16.0001 20 16.0001Z" fill="#FF2F9F"/>
</g>
<defs>
<clipPath id="clip0_3_829">
<rect width="32" height="32" fill="white"/>
</clipPath>
</defs>
</svg>
