<svg width="32" height="32" viewBox="0 0 32 32" fill="none" xmlns="http://www.w3.org/2000/svg">
<path d="M5.33333 9.33325C5.33333 8.59992 5.93333 7.99992 6.66667 7.99992H28C28.7333 7.99992 29.3333 7.39992 29.3333 6.66659C29.3333 5.93325 28.7333 5.33325 28 5.33325H5.33333C3.86667 5.33325 2.66667 6.53325 2.66667 7.99992V22.6666H2C0.893333 22.6666 0 23.5599 0 24.6666C0 25.7733 0.893333 26.6666 2 26.6666H16.6667C17.7733 26.6666 18.6667 25.7733 18.6667 24.6666C18.6667 23.5599 17.7733 22.6666 16.6667 22.6666H5.33333V9.33325ZM30.6667 10.6666H22.6667C21.9333 10.6666 21.3333 11.2666 21.3333 11.9999V25.3333C21.3333 26.0666 21.9333 26.6666 22.6667 26.6666H30.6667C31.4 26.6666 32 26.0666 32 25.3333V11.9999C32 11.2666 31.4 10.6666 30.6667 10.6666ZM29.3333 22.6666H24V13.3333H29.3333V22.6666Z" fill="#9D79D7"/>
</svg>
