<svg width="34" height="34" viewBox="0 0 34 34" fill="none" xmlns="http://www.w3.org/2000/svg">
<path d="M33.1152 5.31912L33.1152 5.31908C32.9401 4.8918 32.5243 4.61257 32.0624 4.61257H29.3874V1.93761C29.3874 1.9376 29.3874 1.93759 29.3874 1.93758C29.3875 1.47577 29.1084 1.05984 28.681 0.884881C28.2537 0.709833 27.7629 0.810647 27.4391 1.13989L27.5815 1.27998L27.439 1.13989L23.7932 4.84646C21.4603 3.46226 18.818 2.73757 16.0625 2.73757C7.64733 2.73757 0.8 9.55532 0.8 17.9375C0.8 26.3404 7.66087 33.2 16.0625 33.2C24.4448 33.2 31.2625 26.3527 31.2625 17.9375C31.2625 15.182 30.5378 12.5397 29.1535 10.2068L32.8601 6.56104C33.1894 6.23721 33.2901 5.74648 33.1152 5.31912ZM23.6761 4.96667C23.6754 4.96744 23.6761 4.9667 23.6769 4.96576L23.6761 4.96667ZM24.3 17.9375C24.3 22.4795 20.6045 26.175 16.0625 26.175C11.5205 26.175 7.825 22.4795 7.825 17.9375C7.825 13.3956 11.5205 9.70006 16.0625 9.70006C17.9243 9.70006 19.6433 10.3212 21.0245 11.3669L19.2965 13.0949C18.3708 12.4747 17.258 12.1126 16.0625 12.1126C12.8504 12.1126 10.2375 14.7255 10.2375 17.9375C10.2375 21.1496 12.8504 23.7625 16.0625 23.7625C19.2746 23.7625 21.8875 21.1496 21.8875 17.9375C21.8875 16.742 21.5253 15.6293 20.9052 14.7036L22.6331 12.9756C23.6789 14.3568 24.3 16.0758 24.3 17.9375ZM15.2582 18.7418C15.7024 19.1861 16.4227 19.1861 16.8669 18.7418C16.8669 18.7418 16.8669 18.7418 16.8669 18.7418L19.2439 16.3648C19.4796 16.8391 19.6125 17.3729 19.6125 17.9375C19.6125 19.8948 18.0198 21.4875 16.0625 21.4875C14.1052 21.4875 12.5125 19.8948 12.5125 17.9375C12.5125 15.9803 14.1052 14.3875 16.0625 14.3875C16.6271 14.3875 17.1609 14.5205 17.6352 14.7562L15.2582 17.1332C14.814 17.5774 14.814 18.2976 15.2582 18.7418ZM28.9875 17.9375C28.9875 25.0996 23.1883 30.925 16.0625 30.925C8.90133 30.925 3.075 25.0987 3.075 17.9375C3.075 10.8118 8.90044 5.01257 16.0625 5.01257C18.6984 5.01257 21.2097 5.79155 23.3625 7.2702V9.02891L22.6446 9.74681C20.842 8.29538 18.5519 7.42506 16.0625 7.42506C10.2657 7.42506 5.55 12.1408 5.55 17.9375C5.55 23.7343 10.2657 28.45 16.0625 28.45C21.8593 28.45 26.575 23.7343 26.575 17.9375C26.575 15.448 25.7047 13.1581 24.2533 11.3555L24.9712 10.6376H26.7299C28.2085 12.7904 28.9875 15.3017 28.9875 17.9375ZM29.284 6.8875L27.7844 8.36256H25.6375V6.21569L27.1125 4.71611V5.75001C27.1125 6.37821 27.6218 6.8875 28.25 6.8875H29.284Z" fill="#5B59DF" stroke="#5B59DF" stroke-width="0.4"/>
</svg>
