<svg width="32" height="32" viewBox="0 0 32 32" fill="none" xmlns="http://www.w3.org/2000/svg">
<mask id="path-1-outside-1_3_559" maskUnits="userSpaceOnUse" x="1" y="1" width="30" height="30" fill="black">
<rect fill="white" x="1" y="1" width="30" height="30"/>
<path fill-rule="evenodd" clip-rule="evenodd" d="M2 16C2 8.28042 8.28042 2 16 2C23.7196 2 30 8.28042 30 16C30 23.7196 23.7196 30 16 30C8.28042 30 2 23.7196 2 16ZM15.4462 28.1209C15.2669 25.0202 16.3017 22.0123 18.3484 19.6792L15.9688 17.3036L8.07679 25.1822C10.0736 26.9075 12.637 27.9941 15.4462 28.1209ZM6.76155 23.8576L14.6477 15.9848L11.5257 12.8681C9.41637 14.7461 6.74657 15.7693 3.86822 15.8035C3.86717 15.8689 3.86665 15.9344 3.86665 16C3.86665 18.9945 4.957 21.7391 6.76155 23.8576ZM4.04292 13.9322C6.35091 13.86 8.49004 13.0327 10.2015 11.5461L6.77557 8.12598C5.38821 9.7489 4.4207 11.7409 4.04292 13.9322ZM8.09314 6.80374L11.4964 10.2012C12.8969 8.45766 13.6714 6.30627 13.6938 4.0865C11.5817 4.49451 9.66311 5.452 8.09314 6.80374ZM15.5603 3.87451C15.7062 3.86928 15.8528 3.86665 16 3.86665C19.0019 3.86665 21.7526 4.96239 23.8733 6.77491L15.9688 14.666L12.8242 11.5267C14.6159 9.37308 15.5875 6.66334 15.5603 3.87451ZM25.1956 8.09238L17.2898 15.9848L19.6853 18.3762C22.0429 16.4165 25.0854 15.4446 28.1293 15.6832C28.0547 12.7886 26.9615 10.143 25.1956 8.09238ZM28.035 17.5483C25.516 17.3374 22.9916 18.1144 21.0129 19.7016L25.2097 23.8912C26.714 22.138 27.7276 19.952 28.035 17.5483ZM23.8897 25.211C22.0796 26.7637 19.8083 27.7932 17.3125 28.0629C17.1508 25.4769 17.9928 22.9644 19.6726 21.0012L23.8897 25.211Z"/>
</mask>
<path fill-rule="evenodd" clip-rule="evenodd" d="M2 16C2 8.28042 8.28042 2 16 2C23.7196 2 30 8.28042 30 16C30 23.7196 23.7196 30 16 30C8.28042 30 2 23.7196 2 16ZM15.4462 28.1209C15.2669 25.0202 16.3017 22.0123 18.3484 19.6792L15.9688 17.3036L8.07679 25.1822C10.0736 26.9075 12.637 27.9941 15.4462 28.1209ZM6.76155 23.8576L14.6477 15.9848L11.5257 12.8681C9.41637 14.7461 6.74657 15.7693 3.86822 15.8035C3.86717 15.8689 3.86665 15.9344 3.86665 16C3.86665 18.9945 4.957 21.7391 6.76155 23.8576ZM4.04292 13.9322C6.35091 13.86 8.49004 13.0327 10.2015 11.5461L6.77557 8.12598C5.38821 9.7489 4.4207 11.7409 4.04292 13.9322ZM8.09314 6.80374L11.4964 10.2012C12.8969 8.45766 13.6714 6.30627 13.6938 4.0865C11.5817 4.49451 9.66311 5.452 8.09314 6.80374ZM15.5603 3.87451C15.7062 3.86928 15.8528 3.86665 16 3.86665C19.0019 3.86665 21.7526 4.96239 23.8733 6.77491L15.9688 14.666L12.8242 11.5267C14.6159 9.37308 15.5875 6.66334 15.5603 3.87451ZM25.1956 8.09238L17.2898 15.9848L19.6853 18.3762C22.0429 16.4165 25.0854 15.4446 28.1293 15.6832C28.0547 12.7886 26.9615 10.143 25.1956 8.09238ZM28.035 17.5483C25.516 17.3374 22.9916 18.1144 21.0129 19.7016L25.2097 23.8912C26.714 22.138 27.7276 19.952 28.035 17.5483ZM23.8897 25.211C22.0796 26.7637 19.8083 27.7932 17.3125 28.0629C17.1508 25.4769 17.9928 22.9644 19.6726 21.0012L23.8897 25.211Z" fill="#4B9A4E"/>
<path d="M15.4462 28.1209L15.4282 28.5205L15.8711 28.5405L15.8455 28.0978L15.4462 28.1209ZM18.3484 19.6792L18.6491 19.943L18.8964 19.661L18.631 19.3961L18.3484 19.6792ZM15.9688 17.3036L16.2514 17.0205L15.9688 16.7384L15.6862 17.0205L15.9688 17.3036ZM8.07679 25.1822L7.79419 24.8991L7.48946 25.2033L7.81527 25.4848L8.07679 25.1822ZM6.76155 23.8576L6.45705 24.117L6.73777 24.4465L7.04416 24.1407L6.76155 23.8576ZM14.6477 15.9848L14.9303 16.2679L15.2139 15.9848L14.9303 15.7017L14.6477 15.9848ZM11.5257 12.8681L11.8083 12.585L11.5414 12.3186L11.2597 12.5693L11.5257 12.8681ZM3.86822 15.8035L3.86346 15.4035L3.47447 15.4081L3.46827 15.7971L3.86822 15.8035ZM4.04292 13.9322L3.64873 13.8643L3.56545 14.3473L4.05543 14.332L4.04292 13.9322ZM10.2015 11.5461L10.4638 11.848L10.788 11.5664L10.4841 11.263L10.2015 11.5461ZM6.77557 8.12598L7.05817 7.8429L6.75233 7.53758L6.47152 7.86606L6.77557 8.12598ZM8.09314 6.80374L7.83215 6.50062L7.50526 6.78206L7.81054 7.08682L8.09314 6.80374ZM11.4964 10.2012L11.2138 10.4843L11.5291 10.7991L11.8082 10.4517L11.4964 10.2012ZM13.6938 4.0865L14.0938 4.09054L14.0987 3.60088L13.6179 3.69376L13.6938 4.0865ZM15.5603 3.87451L15.546 3.47476L15.1565 3.4887L15.1603 3.8784L15.5603 3.87451ZM23.8733 6.77491L24.1559 7.058L24.4622 6.75213L24.1331 6.47085L23.8733 6.77491ZM15.9688 14.666L15.6862 14.9491L15.9688 15.2312L16.2514 14.9491L15.9688 14.666ZM12.8242 11.5267L12.5167 11.2709L12.2831 11.5517L12.5416 11.8098L12.8242 11.5267ZM25.1956 8.09238L25.4987 7.83137L25.2177 7.50509L24.913 7.8093L25.1956 8.09238ZM17.2898 15.9848L17.0072 15.7017L16.7236 15.9848L17.0072 16.2679L17.2898 15.9848ZM19.6853 18.3762L19.4027 18.6593L19.6607 18.9168L19.941 18.6838L19.6853 18.3762ZM28.1293 15.6832L28.098 16.0819L28.5406 16.1166L28.5291 15.6729L28.1293 15.6832ZM28.035 17.5483L28.4318 17.599L28.4848 17.1846L28.0684 17.1497L28.035 17.5483ZM21.0129 19.7016L20.7626 19.3895L20.4142 19.6691L20.7303 19.9847L21.0129 19.7016ZM25.2097 23.8912L24.9271 24.1743L25.2324 24.4791L25.5133 24.1517L25.2097 23.8912ZM23.8897 25.211L24.1501 25.5146L24.4781 25.2333L24.1723 24.928L23.8897 25.211ZM17.3125 28.0629L16.9133 28.0878L16.9394 28.5055L17.3555 28.4605L17.3125 28.0629ZM19.6726 21.0012L19.9552 20.7181L19.6496 20.4129L19.3687 20.7411L19.6726 21.0012ZM16 1.6C8.05951 1.6 1.6 8.05951 1.6 16H2.4C2.4 8.50134 8.50134 2.4 16 2.4V1.6ZM30.4 16C30.4 8.05951 23.9405 1.6 16 1.6V2.4C23.4987 2.4 29.6 8.50134 29.6 16H30.4ZM16 30.4C23.9405 30.4 30.4 23.9405 30.4 16H29.6C29.6 23.4987 23.4987 29.6 16 29.6V30.4ZM1.6 16C1.6 23.9405 8.05951 30.4 16 30.4V29.6C8.50134 29.6 2.4 23.4987 2.4 16H1.6ZM15.8455 28.0978C15.6723 25.102 16.6717 22.1971 18.6491 19.943L18.0477 19.4154C15.9318 21.8275 14.8615 24.9384 15.0469 28.144L15.8455 28.0978ZM18.631 19.3961L16.2514 17.0205L15.6862 17.5867L18.0658 19.9623L18.631 19.3961ZM15.6862 17.0205L7.79419 24.8991L8.3594 25.4652L16.2514 17.5867L15.6862 17.0205ZM15.4642 27.7213C12.7483 27.5987 10.2698 26.5484 8.33832 24.8795L7.81527 25.4848C9.8774 27.2667 12.5258 28.3895 15.4282 28.5205L15.4642 27.7213ZM7.04416 24.1407L14.9303 16.2679L14.3651 15.7017L6.47895 23.5745L7.04416 24.1407ZM14.9303 15.7017L11.8083 12.585L11.2431 13.1512L14.3651 16.2679L14.9303 15.7017ZM11.2597 12.5693C9.22395 14.3819 6.64747 15.3704 3.86346 15.4035L3.87297 16.2035C6.84568 16.1681 9.60879 15.1104 11.7917 13.1668L11.2597 12.5693ZM4.26665 16C4.26665 15.9365 4.26716 15.8731 4.26816 15.8099L3.46827 15.7971C3.46719 15.8646 3.46665 15.9322 3.46665 16H4.26665ZM7.06606 23.5982C5.32063 21.5491 4.26665 18.8956 4.26665 16H3.46665C3.46665 19.0934 4.59338 21.9291 6.45705 24.117L7.06606 23.5982ZM4.05543 14.332C6.45332 14.257 8.68123 13.3965 10.4638 11.848L9.93915 11.2441C8.29886 12.669 6.2485 13.463 4.03041 13.5324L4.05543 14.332ZM10.4841 11.263L7.05817 7.8429L6.49296 8.40906L9.91887 11.8292L10.4841 11.263ZM4.4371 14.0002C4.80228 11.882 5.73757 9.9558 7.07961 8.38589L6.47152 7.86606C5.03884 9.54199 4.03911 11.5999 3.64873 13.8643L4.4371 14.0002ZM7.81054 7.08682L11.2138 10.4843L11.779 9.9181L8.37574 6.52066L7.81054 7.08682ZM11.8082 10.4517C13.2644 8.63897 14.0704 6.40098 14.0938 4.09054L13.2938 4.08246C13.2723 6.21155 12.5295 8.27635 11.1845 9.95068L11.8082 10.4517ZM8.35413 7.10686C9.87283 5.79927 11.7281 4.87364 13.7696 4.47924L13.6179 3.69376C11.4354 4.11539 9.45339 5.10474 7.83215 6.50062L8.35413 7.10686ZM15.5746 4.27425C15.7158 4.2692 15.8576 4.26665 16 4.26665V3.46665C15.848 3.46665 15.6967 3.46937 15.546 3.47476L15.5746 4.27425ZM16 4.26665C18.9028 4.26665 21.5622 5.32583 23.6134 7.07898L24.1331 6.47085C21.9431 4.59894 19.101 3.46665 16 3.46665V4.26665ZM16.2514 14.9491L24.1559 7.058L23.5907 6.49183L15.6862 14.3829L16.2514 14.9491ZM12.5416 11.8098L15.6862 14.9491L16.2514 14.3829L13.1068 11.2437L12.5416 11.8098ZM15.1603 3.8784C15.1866 6.57156 14.2483 9.18946 12.5167 11.2709L13.1317 11.7826C14.9834 9.5567 15.9884 6.75511 15.9603 3.87061L15.1603 3.8784ZM24.913 7.8093L17.0072 15.7017L17.5724 16.2679L25.4782 8.37547L24.913 7.8093ZM17.0072 16.2679L19.4027 18.6593L19.9679 18.0931L17.5724 15.7017L17.0072 16.2679ZM19.941 18.6838C22.219 16.7903 25.1587 15.8516 28.098 16.0819L28.1605 15.2844C25.0121 15.0376 21.8668 16.0427 19.4296 18.0686L19.941 18.6838ZM24.8925 8.3534C26.6006 10.3369 27.6573 12.8948 27.7294 15.6935L28.5291 15.6729C28.4521 12.6825 27.3224 9.94913 25.4987 7.83137L24.8925 8.3534ZM28.0684 17.1497C25.4463 16.9301 22.8206 17.7388 20.7626 19.3895L21.2632 20.0136C23.1626 18.49 25.5857 17.7446 28.0017 17.9469L28.0684 17.1497ZM20.7303 19.9847L24.9271 24.1743L25.4923 23.6082L21.2955 19.4185L20.7303 19.9847ZM27.6383 17.4975C27.341 19.8211 26.3613 21.9349 24.9061 23.6308L25.5133 24.1517C27.0668 22.3412 28.1141 20.0829 28.4318 17.599L27.6383 17.4975ZM23.6292 24.9074C21.8783 26.4093 19.6822 27.4045 17.2695 27.6652L17.3555 28.4605C19.9343 28.1819 22.2808 27.118 24.1501 25.5146L23.6292 24.9074ZM19.3687 20.7411C17.6213 22.7833 16.7451 25.398 16.9133 28.0878L17.7117 28.0379C17.5566 25.5558 18.3643 23.1455 19.9766 21.2612L19.3687 20.7411ZM24.1723 24.928L19.9552 20.7181L19.39 21.2843L23.6071 25.4941L24.1723 24.928Z" fill="#4B9A4E" mask="url(#path-1-outside-1_3_559)"/>
</svg>
