<svg width="32" height="32" viewBox="0 0 32 32" fill="none" xmlns="http://www.w3.org/2000/svg">
<g clip-path="url(#clip0_3_255)">
<mask id="path-1-outside-1_3_255" maskUnits="userSpaceOnUse" x="-1" y="0.448486" width="34" height="31" fill="black">
<rect fill="white" x="-1" y="0.448486" width="34" height="31"/>
<path d="M28.5049 13.4392L31.7226 10.2502C32.0921 9.88404 32.0925 9.28648 31.7237 8.91966C25.463 2.69244 26.7604 3.98488 25.0678 2.29225C24.7016 1.92618 24.1081 1.92618 23.742 2.29225L21.334 4.70001C20.75 5.28402 18.7562 5.07033 16.9008 5.46777C15.3188 4.54814 14.0158 4.59995 12.9576 4.64226C12.0204 4.67983 11.5347 4.68883 10.8913 4.28295C10.5689 4.06945 10.5744 4.05001 8.24736 1.72306C7.88123 1.35693 7.28767 1.35699 6.92154 1.72306C6.26666 2.37787 0.33544 8.2916 0.275564 8.35122C0.0990008 8.52728 -0.000187236 8.76641 2.6535e-07 9.01579C0.000187766 9.26516 0.0996883 9.5041 0.276502 9.67992L3.38396 12.7697C3.48177 12.8992 3.56633 13.4326 3.6224 13.7864C3.74127 14.5364 3.89446 15.5006 4.42803 16.375L4.33428 16.4687C3.23508 17.5679 3.23496 19.3469 4.33428 20.4462C4.84322 20.9552 5.50041 21.2275 6.1681 21.264C6.2046 21.9317 6.47698 22.5889 6.98592 23.0979C7.48048 23.5924 8.12686 23.8799 8.81993 23.9172C8.85674 24.5844 9.12905 25.2409 9.63762 25.7495C10.1466 26.2585 10.8037 26.5308 11.4714 26.5673C11.5079 27.2351 11.7803 27.8922 12.2893 28.4011C13.1664 29.2783 14.4601 29.4448 15.491 28.9512L16.2668 29.727C17.3659 30.8262 19.1451 30.8263 20.2442 29.727C20.7388 29.2324 21.0262 28.5861 21.0636 27.893C21.7308 27.8562 22.3874 27.5839 22.8959 27.0753C23.4045 26.5667 23.6768 25.9101 23.7136 25.2429C24.4067 25.2056 25.053 24.9183 25.5476 24.4237C26.0565 23.9147 26.3289 23.2576 26.3654 22.5899C27.0332 22.5534 27.6903 22.281 28.1992 21.772C29.2958 20.6755 29.2958 18.8912 28.1992 17.7946L27.4627 17.058C28.3605 15.6353 28.1775 14.0352 28.4912 13.4564C28.4957 13.4503 28.5002 13.4439 28.5049 13.4392ZM20.2999 6.96809L26.5798 13.2481C26.378 14.0311 26.3958 14.902 26.075 15.6704L20.2442 9.8396C19.1451 8.74047 17.366 8.74029 16.2667 9.8396L13.6151 12.4912C13.2486 12.8577 12.6557 12.8577 12.2893 12.4912C11.9238 12.1257 11.9237 11.5309 12.2893 11.1654L14.941 8.51372C16.4472 7.00746 18.5175 7.18334 20.2999 6.96809ZM3.7009 10.4407L2.2662 9.01416C3.53271 7.75141 6.27566 5.01639 7.58386 3.71119L9.00718 5.13445L3.7009 10.4407ZM6.98585 19.1203C6.62029 19.4859 6.02554 19.4859 5.65997 19.1203C5.29359 18.7539 5.29366 18.161 5.66003 17.7945C6.17072 17.2838 6.45498 16.9996 6.98585 16.4687C7.35136 16.1031 7.94617 16.1032 8.31167 16.4687C8.67811 16.8351 8.67811 17.428 8.31167 17.7945L6.98585 19.1203ZM9.63756 21.772C9.27112 22.1384 8.67818 22.1385 8.31174 21.772C7.94617 21.4065 7.94617 20.8117 8.31174 20.4462L9.63756 19.1203C10.0032 18.7548 10.5979 18.7549 10.9634 19.1203C11.3289 19.4859 11.3289 20.0807 10.9634 20.4462L9.63756 21.772ZM10.9634 24.4237C10.5979 24.0582 10.5979 23.4634 10.9634 23.0979L12.2893 21.772C12.6557 21.4056 13.2486 21.4056 13.6151 21.772C13.9815 22.1385 13.9815 22.7314 13.6151 23.0979L12.2893 24.4237C11.9237 24.7892 11.3289 24.7891 10.9634 24.4237ZM16.2667 25.7494L14.9408 27.0753C14.5744 27.4418 13.9815 27.4418 13.615 27.0753C13.2495 26.7098 13.2495 26.115 13.615 25.7495L14.9408 24.4237C14.9409 24.4236 14.941 24.4236 14.941 24.4235C15.3066 24.0582 15.901 24.0582 16.2665 24.4236C16.2666 24.4236 16.2667 24.4236 16.2667 24.4237L16.267 24.4239C16.6322 24.7895 16.6321 25.3841 16.2667 25.7494ZM18.9184 28.4012C18.552 28.7676 17.959 28.7677 17.5925 28.4012L16.9296 27.7383L17.5925 27.0754C17.8249 26.843 18.0075 26.5795 18.1414 26.2984L18.9184 27.0754C19.2848 27.4418 19.2848 28.0347 18.9184 28.4012ZM26.8734 20.4462C26.5079 20.8117 25.9132 20.8117 25.5476 20.4462L21.0072 15.9058C20.6411 15.5396 20.0475 15.5396 19.6814 15.9058C19.3152 16.2719 19.3152 16.8655 19.6814 17.2316L24.2218 21.772C24.5873 22.1376 24.5873 22.7323 24.2218 23.0978C23.8555 23.464 23.2628 23.4643 22.8961 23.098C22.8961 23.0979 22.896 23.0979 22.8959 23.0978C22.8958 23.0977 22.8958 23.0976 22.8956 23.0976L18.4141 18.616C18.048 18.2499 17.4544 18.2499 17.0883 18.616C16.7222 18.9822 16.7222 19.5757 17.0883 19.9418L21.5701 24.4236C21.9356 24.7892 21.9356 25.3839 21.5701 25.7494C21.2045 26.115 20.6098 26.115 20.2442 25.7494L17.5925 23.0977C17.084 22.5891 16.4274 22.3169 15.7602 22.2801C15.7228 21.587 15.4355 20.9407 14.9409 20.4461C14.4463 19.9515 13.8 19.6642 13.107 19.6268C13.0701 18.9595 12.7978 18.303 12.2893 17.7945C11.7947 17.2999 11.1484 17.0125 10.4553 16.9751C10.4185 16.3079 10.1462 15.6513 9.63756 15.1428C8.59443 14.0998 6.9296 14.0496 5.82585 14.9909C5.6386 14.5254 5.55528 14.0039 5.47428 13.4928C5.37609 12.8733 5.28134 12.2814 4.99009 11.8032L10.5694 6.2239C11.4413 6.57877 12.2696 6.54627 13.0327 6.51571C13.4826 6.49759 13.9213 6.48034 14.3798 6.53971C14.1182 6.72665 13.8623 6.94059 13.6151 7.18784L10.9634 9.83948C9.86681 10.936 9.86687 12.7204 10.9634 13.8169C12.0626 14.9162 13.8416 14.9162 14.9409 13.8169L17.5925 11.1653C17.959 10.7989 18.5519 10.7989 18.9184 11.1653L26.8733 19.1203C27.2389 19.4859 27.2389 20.0807 26.8734 20.4462ZM22.3056 6.32208C22.5623 6.14271 22.5089 6.17683 24.4049 4.28101C25.265 5.14114 24.3645 4.24432 29.7321 9.5831L27.64 11.6566L22.3056 6.32208Z"/>
</mask>
<path d="M28.5049 13.4392L31.7226 10.2502C32.0921 9.88404 32.0925 9.28648 31.7237 8.91966C25.463 2.69244 26.7604 3.98488 25.0678 2.29225C24.7016 1.92618 24.1081 1.92618 23.742 2.29225L21.334 4.70001C20.75 5.28402 18.7562 5.07033 16.9008 5.46777C15.3188 4.54814 14.0158 4.59995 12.9576 4.64226C12.0204 4.67983 11.5347 4.68883 10.8913 4.28295C10.5689 4.06945 10.5744 4.05001 8.24736 1.72306C7.88123 1.35693 7.28767 1.35699 6.92154 1.72306C6.26666 2.37787 0.33544 8.2916 0.275564 8.35122C0.0990008 8.52728 -0.000187236 8.76641 2.6535e-07 9.01579C0.000187766 9.26516 0.0996883 9.5041 0.276502 9.67992L3.38396 12.7697C3.48177 12.8992 3.56633 13.4326 3.6224 13.7864C3.74127 14.5364 3.89446 15.5006 4.42803 16.375L4.33428 16.4687C3.23508 17.5679 3.23496 19.3469 4.33428 20.4462C4.84322 20.9552 5.50041 21.2275 6.1681 21.264C6.2046 21.9317 6.47698 22.5889 6.98592 23.0979C7.48048 23.5924 8.12686 23.8799 8.81993 23.9172C8.85674 24.5844 9.12905 25.2409 9.63762 25.7495C10.1466 26.2585 10.8037 26.5308 11.4714 26.5673C11.5079 27.2351 11.7803 27.8922 12.2893 28.4011C13.1664 29.2783 14.4601 29.4448 15.491 28.9512L16.2668 29.727C17.3659 30.8262 19.1451 30.8263 20.2442 29.727C20.7388 29.2324 21.0262 28.5861 21.0636 27.893C21.7308 27.8562 22.3874 27.5839 22.8959 27.0753C23.4045 26.5667 23.6768 25.9101 23.7136 25.2429C24.4067 25.2056 25.053 24.9183 25.5476 24.4237C26.0565 23.9147 26.3289 23.2576 26.3654 22.5899C27.0332 22.5534 27.6903 22.281 28.1992 21.772C29.2958 20.6755 29.2958 18.8912 28.1992 17.7946L27.4627 17.058C28.3605 15.6353 28.1775 14.0352 28.4912 13.4564C28.4957 13.4503 28.5002 13.4439 28.5049 13.4392ZM20.2999 6.96809L26.5798 13.2481C26.378 14.0311 26.3958 14.902 26.075 15.6704L20.2442 9.8396C19.1451 8.74047 17.366 8.74029 16.2667 9.8396L13.6151 12.4912C13.2486 12.8577 12.6557 12.8577 12.2893 12.4912C11.9238 12.1257 11.9237 11.5309 12.2893 11.1654L14.941 8.51372C16.4472 7.00746 18.5175 7.18334 20.2999 6.96809ZM3.7009 10.4407L2.2662 9.01416C3.53271 7.75141 6.27566 5.01639 7.58386 3.71119L9.00718 5.13445L3.7009 10.4407ZM6.98585 19.1203C6.62029 19.4859 6.02554 19.4859 5.65997 19.1203C5.29359 18.7539 5.29366 18.161 5.66003 17.7945C6.17072 17.2838 6.45498 16.9996 6.98585 16.4687C7.35136 16.1031 7.94617 16.1032 8.31167 16.4687C8.67811 16.8351 8.67811 17.428 8.31167 17.7945L6.98585 19.1203ZM9.63756 21.772C9.27112 22.1384 8.67818 22.1385 8.31174 21.772C7.94617 21.4065 7.94617 20.8117 8.31174 20.4462L9.63756 19.1203C10.0032 18.7548 10.5979 18.7549 10.9634 19.1203C11.3289 19.4859 11.3289 20.0807 10.9634 20.4462L9.63756 21.772ZM10.9634 24.4237C10.5979 24.0582 10.5979 23.4634 10.9634 23.0979L12.2893 21.772C12.6557 21.4056 13.2486 21.4056 13.6151 21.772C13.9815 22.1385 13.9815 22.7314 13.6151 23.0979L12.2893 24.4237C11.9237 24.7892 11.3289 24.7891 10.9634 24.4237ZM16.2667 25.7494L14.9408 27.0753C14.5744 27.4418 13.9815 27.4418 13.615 27.0753C13.2495 26.7098 13.2495 26.115 13.615 25.7495L14.9408 24.4237C14.9409 24.4236 14.941 24.4236 14.941 24.4235C15.3066 24.0582 15.901 24.0582 16.2665 24.4236C16.2666 24.4236 16.2667 24.4236 16.2667 24.4237L16.267 24.4239C16.6322 24.7895 16.6321 25.3841 16.2667 25.7494ZM18.9184 28.4012C18.552 28.7676 17.959 28.7677 17.5925 28.4012L16.9296 27.7383L17.5925 27.0754C17.8249 26.843 18.0075 26.5795 18.1414 26.2984L18.9184 27.0754C19.2848 27.4418 19.2848 28.0347 18.9184 28.4012ZM26.8734 20.4462C26.5079 20.8117 25.9132 20.8117 25.5476 20.4462L21.0072 15.9058C20.6411 15.5396 20.0475 15.5396 19.6814 15.9058C19.3152 16.2719 19.3152 16.8655 19.6814 17.2316L24.2218 21.772C24.5873 22.1376 24.5873 22.7323 24.2218 23.0978C23.8555 23.464 23.2628 23.4643 22.8961 23.098C22.8961 23.0979 22.896 23.0979 22.8959 23.0978C22.8958 23.0977 22.8958 23.0976 22.8956 23.0976L18.4141 18.616C18.048 18.2499 17.4544 18.2499 17.0883 18.616C16.7222 18.9822 16.7222 19.5757 17.0883 19.9418L21.5701 24.4236C21.9356 24.7892 21.9356 25.3839 21.5701 25.7494C21.2045 26.115 20.6098 26.115 20.2442 25.7494L17.5925 23.0977C17.084 22.5891 16.4274 22.3169 15.7602 22.2801C15.7228 21.587 15.4355 20.9407 14.9409 20.4461C14.4463 19.9515 13.8 19.6642 13.107 19.6268C13.0701 18.9595 12.7978 18.303 12.2893 17.7945C11.7947 17.2999 11.1484 17.0125 10.4553 16.9751C10.4185 16.3079 10.1462 15.6513 9.63756 15.1428C8.59443 14.0998 6.9296 14.0496 5.82585 14.9909C5.6386 14.5254 5.55528 14.0039 5.47428 13.4928C5.37609 12.8733 5.28134 12.2814 4.99009 11.8032L10.5694 6.2239C11.4413 6.57877 12.2696 6.54627 13.0327 6.51571C13.4826 6.49759 13.9213 6.48034 14.3798 6.53971C14.1182 6.72665 13.8623 6.94059 13.6151 7.18784L10.9634 9.83948C9.86681 10.936 9.86687 12.7204 10.9634 13.8169C12.0626 14.9162 13.8416 14.9162 14.9409 13.8169L17.5925 11.1653C17.959 10.7989 18.5519 10.7989 18.9184 11.1653L26.8733 19.1203C27.2389 19.4859 27.2389 20.0807 26.8734 20.4462ZM22.3056 6.32208C22.5623 6.14271 22.5089 6.17683 24.4049 4.28101C25.265 5.14114 24.3645 4.24432 29.7321 9.5831L27.64 11.6566L22.3056 6.32208Z" fill="#4B9A4E"/>
<path d="M28.5049 13.4392L31.7226 10.2502C32.0921 9.88404 32.0925 9.28648 31.7237 8.91966C25.463 2.69244 26.7604 3.98488 25.0678 2.29225C24.7016 1.92618 24.1081 1.92618 23.742 2.29225L21.334 4.70001C20.75 5.28402 18.7562 5.07033 16.9008 5.46777C15.3188 4.54814 14.0158 4.59995 12.9576 4.64226C12.0204 4.67983 11.5347 4.68883 10.8913 4.28295C10.5689 4.06945 10.5744 4.05001 8.24736 1.72306C7.88123 1.35693 7.28767 1.35699 6.92154 1.72306C6.26666 2.37787 0.33544 8.2916 0.275564 8.35122C0.0990008 8.52728 -0.000187236 8.76641 2.6535e-07 9.01579C0.000187766 9.26516 0.0996883 9.5041 0.276502 9.67992L3.38396 12.7697C3.48177 12.8992 3.56633 13.4326 3.6224 13.7864C3.74127 14.5364 3.89446 15.5006 4.42803 16.375L4.33428 16.4687C3.23508 17.5679 3.23496 19.3469 4.33428 20.4462C4.84322 20.9552 5.50041 21.2275 6.1681 21.264C6.2046 21.9317 6.47698 22.5889 6.98592 23.0979C7.48048 23.5924 8.12686 23.8799 8.81993 23.9172C8.85674 24.5844 9.12905 25.2409 9.63762 25.7495C10.1466 26.2585 10.8037 26.5308 11.4714 26.5673C11.5079 27.2351 11.7803 27.8922 12.2893 28.4011C13.1664 29.2783 14.4601 29.4448 15.491 28.9512L16.2668 29.727C17.3659 30.8262 19.1451 30.8263 20.2442 29.727C20.7388 29.2324 21.0262 28.5861 21.0636 27.893C21.7308 27.8562 22.3874 27.5839 22.8959 27.0753C23.4045 26.5667 23.6768 25.9101 23.7136 25.2429C24.4067 25.2056 25.053 24.9183 25.5476 24.4237C26.0565 23.9147 26.3289 23.2576 26.3654 22.5899C27.0332 22.5534 27.6903 22.281 28.1992 21.772C29.2958 20.6755 29.2958 18.8912 28.1992 17.7946L27.4627 17.058C28.3605 15.6353 28.1775 14.0352 28.4912 13.4564C28.4957 13.4503 28.5002 13.4439 28.5049 13.4392ZM20.2999 6.96809L26.5798 13.2481C26.378 14.0311 26.3958 14.902 26.075 15.6704L20.2442 9.8396C19.1451 8.74047 17.366 8.74029 16.2667 9.8396L13.6151 12.4912C13.2486 12.8577 12.6557 12.8577 12.2893 12.4912C11.9238 12.1257 11.9237 11.5309 12.2893 11.1654L14.941 8.51372C16.4472 7.00746 18.5175 7.18334 20.2999 6.96809ZM3.7009 10.4407L2.2662 9.01416C3.53271 7.75141 6.27566 5.01639 7.58386 3.71119L9.00718 5.13445L3.7009 10.4407ZM6.98585 19.1203C6.62029 19.4859 6.02554 19.4859 5.65997 19.1203C5.29359 18.7539 5.29366 18.161 5.66003 17.7945C6.17072 17.2838 6.45498 16.9996 6.98585 16.4687C7.35136 16.1031 7.94617 16.1032 8.31167 16.4687C8.67811 16.8351 8.67811 17.428 8.31167 17.7945L6.98585 19.1203ZM9.63756 21.772C9.27112 22.1384 8.67818 22.1385 8.31174 21.772C7.94617 21.4065 7.94617 20.8117 8.31174 20.4462L9.63756 19.1203C10.0032 18.7548 10.5979 18.7549 10.9634 19.1203C11.3289 19.4859 11.3289 20.0807 10.9634 20.4462L9.63756 21.772ZM10.9634 24.4237C10.5979 24.0582 10.5979 23.4634 10.9634 23.0979L12.2893 21.772C12.6557 21.4056 13.2486 21.4056 13.6151 21.772C13.9815 22.1385 13.9815 22.7314 13.6151 23.0979L12.2893 24.4237C11.9237 24.7892 11.3289 24.7891 10.9634 24.4237ZM16.2667 25.7494L14.9408 27.0753C14.5744 27.4418 13.9815 27.4418 13.615 27.0753C13.2495 26.7098 13.2495 26.115 13.615 25.7495L14.9408 24.4237C14.9409 24.4236 14.941 24.4236 14.941 24.4235C15.3066 24.0582 15.901 24.0582 16.2665 24.4236C16.2666 24.4236 16.2667 24.4236 16.2667 24.4237L16.267 24.4239C16.6322 24.7895 16.6321 25.3841 16.2667 25.7494ZM18.9184 28.4012C18.552 28.7676 17.959 28.7677 17.5925 28.4012L16.9296 27.7383L17.5925 27.0754C17.8249 26.843 18.0075 26.5795 18.1414 26.2984L18.9184 27.0754C19.2848 27.4418 19.2848 28.0347 18.9184 28.4012ZM26.8734 20.4462C26.5079 20.8117 25.9132 20.8117 25.5476 20.4462L21.0072 15.9058C20.6411 15.5396 20.0475 15.5396 19.6814 15.9058C19.3152 16.2719 19.3152 16.8655 19.6814 17.2316L24.2218 21.772C24.5873 22.1376 24.5873 22.7323 24.2218 23.0978C23.8555 23.464 23.2628 23.4643 22.8961 23.098C22.8961 23.0979 22.896 23.0979 22.8959 23.0978C22.8958 23.0977 22.8958 23.0976 22.8956 23.0976L18.4141 18.616C18.048 18.2499 17.4544 18.2499 17.0883 18.616C16.7222 18.9822 16.7222 19.5757 17.0883 19.9418L21.5701 24.4236C21.9356 24.7892 21.9356 25.3839 21.5701 25.7494C21.2045 26.115 20.6098 26.115 20.2442 25.7494L17.5925 23.0977C17.084 22.5891 16.4274 22.3169 15.7602 22.2801C15.7228 21.587 15.4355 20.9407 14.9409 20.4461C14.4463 19.9515 13.8 19.6642 13.107 19.6268C13.0701 18.9595 12.7978 18.303 12.2893 17.7945C11.7947 17.2999 11.1484 17.0125 10.4553 16.9751C10.4185 16.3079 10.1462 15.6513 9.63756 15.1428C8.59443 14.0998 6.9296 14.0496 5.82585 14.9909C5.6386 14.5254 5.55528 14.0039 5.47428 13.4928C5.37609 12.8733 5.28134 12.2814 4.99009 11.8032L10.5694 6.2239C11.4413 6.57877 12.2696 6.54627 13.0327 6.51571C13.4826 6.49759 13.9213 6.48034 14.3798 6.53971C14.1182 6.72665 13.8623 6.94059 13.6151 7.18784L10.9634 9.83948C9.86681 10.936 9.86687 12.7204 10.9634 13.8169C12.0626 14.9162 13.8416 14.9162 14.9409 13.8169L17.5925 11.1653C17.959 10.7989 18.5519 10.7989 18.9184 11.1653L26.8733 19.1203C27.2389 19.4859 27.2389 20.0807 26.8734 20.4462ZM22.3056 6.32208C22.5623 6.14271 22.5089 6.17683 24.4049 4.28101C25.265 5.14114 24.3645 4.24432 29.7321 9.5831L27.64 11.6566L22.3056 6.32208Z" stroke="#4B9A4E" stroke-width="0.8" mask="url(#path-1-outside-1_3_255)"/>
</g>
<defs>
<clipPath id="clip0_3_255">
<rect width="32" height="32" fill="white"/>
</clipPath>
</defs>
</svg>
